<?xml version="1.0" standalone="no"?>
<!DOCTYPE svg PUBLIC "-//W3C//DTD SVG 20010904//EN"
 "http://www.w3.org/TR/2001/REC-SVG-20010904/DTD/svg10.dtd">
<svg version="1.0" xmlns="http://www.w3.org/2000/svg"
 width="200.000000pt" height="200.000000pt" viewBox="0 0 200.000000 200.000000"
 preserveAspectRatio="xMidYMid meet">
<metadata>
Created by potrace 1.14, written by Peter Selinger 2001-2017
</metadata>
<g transform="translate(0.000000,200.000000) scale(0.100000,-0.100000)"
fill="#000000" stroke="none">
<path d="M980 1559 c-39 -72 -63 -241 -50 -349 10 -78 47 -210 60 -210 10 0
27 40 46 112 12 44 17 100 17 183 0 102 -4 132 -27 203 -15 45 -29 82 -31 82
-2 0 -9 -9 -15 -21z"/>
<path d="M1247 1389 c-64 -65 -92 -104 -124 -169 -40 -83 -82 -224 -70 -237
11 -10 93 64 143 129 26 35 62 95 81 133 32 69 70 212 58 223 -3 4 -43 -32
-88 -79z"/>
<path d="M650 1429 c0 -42 45 -173 80 -234 51 -88 181 -227 197 -211 13 12
-27 157 -62 227 -42 84 -110 173 -165 218 -21 17 -41 31 -44 31 -3 0 -6 -14
-6 -31z"/>
<path d="M450 1178 c0 -21 122 -132 182 -166 93 -53 248 -99 248 -73 0 27
-128 138 -205 177 -99 51 -225 86 -225 62z"/>
<path d="M1490 1183 c-46 -8 -124 -35 -183 -65 -60 -30 -218 -171 -205 -183
13 -13 124 17 205 56 79 38 199 135 224 181 10 19 9 19 -41 11z"/>
<path d="M565 916 c-5 -3 -36 -12 -67 -21 -32 -8 -58 -20 -58 -25 0 -20 115
-44 210 -44 95 0 210 24 210 44 0 18 -105 42 -195 46 -49 2 -94 2 -100 0z"/>
<path d="M1245 914 c-84 -22 -125 -36 -125 -44 0 -20 115 -44 210 -45 90 0
220 26 220 45 0 26 -240 60 -305 44z"/>
<path d="M800 795 c-25 -8 -65 -25 -89 -37 -53 -27 -162 -129 -144 -135 17 -6
118 24 167 49 41 21 146 114 146 129 0 12 -27 10 -80 -6z"/>
<path d="M1100 802 c0 -15 91 -96 140 -125 47 -27 167 -63 178 -53 12 13 -108
115 -169 144 -68 32 -149 51 -149 34z"/>
<path d="M867 710 c-24 -27 -54 -70 -66 -94 -22 -48 -43 -127 -35 -135 11 -11
98 89 125 144 32 66 48 135 31 135 -5 0 -30 -22 -55 -50z"/>
<path d="M1055 728 c16 -74 48 -137 96 -191 28 -31 55 -57 61 -57 15 0 1 65
-27 127 -23 51 -108 153 -127 153 -6 0 -7 -14 -3 -32z"/>
<path d="M971 588 c-28 -91 -21 -158 18 -158 39 0 52 65 28 144 -16 51 -32 56
-46 14z"/>
</g>
</svg>
